<svg fill="#60373e" id="Capa_1" enable-background="new 0 0 512 512" height="512" viewBox="0 0 512 512" width="512" xmlns="http://www.w3.org/2000/svg"><g><circle cx="42.406" cy="321.222" r="7.5"/><circle cx="473.854" cy="321.222" r="7.5"/><circle cx="42.406" cy="391.763" r="7.5"/><circle cx="473.854" cy="391.763" r="7.5"/><circle cx="42.406" cy="254.062" r="7.5"/><circle cx="473.854" cy="254.062" r="7.5"/><path d="m400.149 151.972c-.63-4.094-4.464-6.899-8.553-6.273-4.094.63-6.903 4.459-6.273 8.553l4.105 26.692c.071.46.182.904.33 1.328l-6.87 9.366c-2.45 3.34-1.728 8.034 1.612 10.483 1.336.98 2.89 1.453 4.43 1.453 2.307 0 4.584-1.062 6.054-3.065l6.874-9.372c.071.002.141.01.212.01.379 0 .763-.029 1.149-.088l26.692-4.104c4.094-.63 6.903-4.459 6.273-8.553s-4.461-6.901-8.553-6.273l-13.335 2.051 15.285-20.839c.071.002.14.009.211.009.379 0 .763-.029 1.149-.088l26.692-4.104c4.094-.63 6.903-4.459 6.273-8.553s-4.461-6.902-8.553-6.273l-13.335 2.05 21.337-29.091c2.45-3.34 1.728-8.034-1.612-10.483-3.338-2.449-8.032-1.728-10.483 1.612l-21.337 29.091-2.05-13.335c-.629-4.094-4.465-6.901-8.553-6.274-4.094.63-6.903 4.459-6.273 8.553l4.104 26.692c.071.46.182.904.33 1.328l-15.28 20.833z"/><path d="m491.296 212.983h-12.135c1.224-1.344 2.389-2.753 3.479-4.239 9.46-12.897 12.292-29.109 7.77-44.477-.278-.945.231-1.881.8-2.442 3.854-3.798 7.197-8.112 9.938-12.821 14.874-25.567 8.881-59.016-13.94-77.805-13.146-10.824-29.661-15.622-46.495-13.514-16.846 2.11-31.652 10.809-41.689 24.494-.897 1.222-1.745 2.487-2.551 3.778-12.706-8.552-26.726-13.724-40.961-15.072l-.446-2.508c-2.06-11.567-13.142-19.306-24.715-17.244-11.568 2.06-19.303 13.147-17.244 24.714l.446 2.508c-13.303 6.372-24.924 16.435-34.014 29.376-.055-.013-.106-.034-.161-.046-4.095-.901-8.415.223-11.555 3.003-4.813 4.262-11.137 10.212-17.815 17.43-6.199-6.003-13.084-10.787-20.42-14.232 1.349-1.204 2.682-2.439 3.976-3.736 15.314-15.336 20.978-42.659 22.703-53.694.535-3.421-.609-6.924-3.059-9.37s-5.955-3.583-9.374-3.044c-11.033 1.741-38.348 7.445-53.661 22.781-7.049 7.059-12.609 14.803-16.316 22.456-8.429-11.728-21.721-19.586-36.987-20.839-4.133-.339-7.75 2.732-8.089 6.861-.339 4.128 2.733 7.75 6.861 8.089 15.11 1.24 27.479 11.662 31.434 25.94-5.154-1.263-10.421-1.9-15.757-1.9-5.339 0-10.553.645-15.591 1.871-.926-3.113-2.095-6.158-3.509-9.102-12.807-26.661-43.852-40.479-72.214-32.14-16.336 4.803-29.577 15.774-37.283 30.891-7.712 15.126-8.824 32.262-3.133 48.252 1.098 3.085 2.457 6.105 4.038 8.978.448.813.38 1.895-.172 2.756-8.578 13.37-10.447 29.608-5.128 44.551 1.182 3.322 2.729 6.499 4.562 9.496h-2.186c-11.415 0-20.703 9.287-20.703 20.703v179.624c0 11.415 9.288 20.703 20.703 20.703h13.253v18.307c0 8.696 7.075 15.771 15.771 15.771h293.836c4.142 0 7.5-3.358 7.5-7.5s-3.358-7.5-7.5-7.5h-293.836c-.425 0-.771-.346-.771-.771v-18.307h409.898v18.307c0 .425-.346.771-.772.771h-84.52c-4.142 0-7.5 3.358-7.5 7.5s3.358 7.5 7.5 7.5h84.52c8.696 0 15.772-7.075 15.772-15.771v-18.307h17.442c11.416 0 20.704-9.288 20.704-20.703v-179.624c0-11.416-9.288-20.703-20.704-20.703zm-84.069-115.613c1.122-2.203 2.432-4.329 3.892-6.32 7.574-10.326 18.746-16.89 31.459-18.482 12.703-1.592 25.167 2.035 35.096 10.21 17.21 14.17 21.728 39.397 10.509 58.682-2.071 3.559-4.595 6.817-7.502 9.682-4.67 4.603-6.456 11.255-4.66 17.359 3.19 10.843 1.195 22.278-5.475 31.372-4.641 6.327-11.048 10.855-18.533 13.111h-103.473c-.546-2.081-1.424-4.069-2.644-5.868-5.271-7.776-5.574-17.948-.771-25.914 1.822-3.022 4.19-5.545 7.041-7.499 6.239-4.276 8.922-12.358 6.525-19.652-3.615-11.001-1.693-23.132 5.14-32.448 6.614-9.018 16.833-14.354 28.037-14.642 6.545-.169 12.429-3.844 15.359-9.591zm-86.054-6.02c5.409-2.463 8.458-8.271 7.416-14.122l-.714-4.011c-.61-3.425 1.681-6.707 5.105-7.317 3.424-.613 6.708 1.68 7.318 5.105l.714 4.009c1.041 5.852 5.907 10.251 11.833 10.696 9.218.693 18.393 3.38 27.091 7.862-11.231 2.894-21.156 9.554-28.2 19.158-9.691 13.212-12.418 30.409-7.295 46.001.328.999.018 2.067-.755 2.597-4.632 3.174-8.47 7.254-11.408 12.128-7.295 12.102-7.361 27.304-.38 39.526h-28.18c.35-1.402.687-2.809.998-4.221 3.289-14.961 2.419-33.065-2.588-53.809-3.454-14.308-8.182-27.061-11.988-36.128 8.098-12.422 18.763-21.885 31.033-27.474zm-45.294 32.257c19.164 44.842 16.334 72.168 14.186 81.934-.551 2.504-1.177 4.991-1.859 7.442h-25.984c1.149-12.664 3.653-25.551 7.474-38.39 1.182-3.97-1.079-8.146-5.049-9.328-3.97-1.18-8.146 1.079-9.328 5.049-4.24 14.248-6.966 28.576-8.145 42.668h-21.467c.401-6.865 1.375-13.886 2.928-20.948 2.147-9.765 11.039-35.757 47.244-68.427zm-75.091-46.186c2.958-2.962 14.156-12.49 39.649-17.544-5.017 25.5-14.529 36.713-17.486 39.675-3.352 3.357-6.919 6.332-10.603 8.869-3.728-.648-7.512-.99-11.332-.99-5.917 0-11.747.801-17.434 2.353.048-.314.083-.633.091-.959.205-8.872 6.924-21.198 17.115-31.404zm-27.746 49.812c1.984.91 4.268.91 6.252 0 6.951-3.187 14.259-4.803 21.722-4.803 14.269 0 28.065 6.025 39.164 17.035-.426.527-22.905 34.387-26.195 49.349-1.787 8.131-2.885 16.236-3.298 24.169h-121.029c-.617-4.376-.935-8.835-.935-13.309 0-42.592 28.08-77.243 62.597-77.243 7.462-.001 14.77 1.615 21.722 4.802zm-131.13 85.554c-4.298-3.958-7.479-8.78-9.454-14.33-3.75-10.536-2.43-21.988 3.622-31.422 3.535-5.511 3.797-12.444.685-18.092-1.193-2.166-2.217-4.443-3.045-6.77-4.294-12.065-3.455-24.996 2.365-36.41 5.815-11.406 15.812-19.685 28.151-23.313 21.389-6.287 44.802 4.135 54.462 24.245 1.205 2.507 2.159 5.115 2.892 7.778-28.077 13.896-47.868 46.85-47.868 85.2 0 4.461.275 8.915.807 13.309h-32.425c-.065-.064-.124-.133-.192-.195zm-21.209 15.196h470.593c3.145 0 5.704 2.559 5.704 5.703v46.231h-372.202c-4.142 0-7.5 3.358-7.5 7.5s3.358 7.5 7.5 7.5h372.202v56.019h-482v-56.019h79.798c4.142 0 7.5-3.358 7.5-7.5s-3.358-7.5-7.5-7.5h-79.798v-46.231c0-3.145 2.559-5.703 5.703-5.703zm470.593 191.029h-470.593c-3.145 0-5.703-2.559-5.703-5.703v-47.375h482v47.374c0 3.146-2.559 5.704-5.704 5.704z"/></g></svg>